<svg viewBox="0 0 400 100" xmlns="http://www.w3.org/2000/svg">
<style>
circle, line { fill: none; stroke: rgba(0, 0, 0, .25); }
marker circle { fill: red; stroke: none; }
polygon { fill: none; stroke: black; marker-mid: url(#dot); marker-end: url(#dot); }
text { font-size: 6px; text-anchor: middle; }
</style>

  <marker id="dot" viewBox="0 0 10 10" refX="5" refY="5" markerWidth="5" markerHeight="5">
    <circle cx="5" cy="5" r="4" />
  </marker>

  <circle cx="50" cy="50" r="40" />
  <text x="50" y="97">5 vertex on 1 circle</text>

  <polygon
    points="50,10
    11.95773,37.63932
    26.48858,82.36067
    73.51141,82.36067
    88.04226,37.63932" />


  <circle cx="150" cy="50" r="40" />
  <circle cx="150" cy="50" r="20" />
  <text x="150" y="97">5 vertex on 2 circles</text>

  <polygon
    points="150,10
    138.24429,33.81966
    111.95773,37.63932
    130.97886,56.18033
    126.48858,82.36067
    150,70
    173.51141,82.36067
    169.02113,56.18033
    188.04226,37.63932
    161.75570,33.81966" />

  <circle cx="250" cy="50" r="40" />
  <circle cx="250" cy="50" r="30" />
  <circle cx="250" cy="50" r="20" />
  <text x="250" y="97">5 vertex on 3 circles</text>

  <polygon
    points="250,10
    262.20209,22.59363
    264.86289,36.61738
    288.04226,37.63932
    279.83565,53.13585
    267.32050,60
    273.51141,82.36067
    256.23735,79.34442
    245.84176,69.56295
    226.48858,82.36067
    224.01923,65
    230.10956,52.09056
    211.95773,37.63932
    227.70565,29.92608
    241.86526,31.72909" />


  <circle cx="350" cy="50" r="40" />
  <circle cx="350" cy="50" r="20" />
  <circle cx="350" cy="50" r="30" />
  <text x="350" y="97">5 vertex on 4 circles (2 overlapping)</text>

  <polygon
    points="350,10
    356.18033,30.97886
    367.63355,25.72949
    366.18033,38.24429
    388.04226,37.63932
    370,50
    378.53169,59.27050
    366.18033,61.75570
    373.51141,82.36067
    356.18033,69.02113
    350,80
    343.81966,69.02113
    326.48858,82.36067
    333.81966,61.75570
    321.46830,59.27050
    330,50
    311.95773,37.63932
    333.81966,38.24429
    332.36644,25.72949
    343.81966,30.97886" />

</svg>
